<?xml version="1.0" encoding="utf-8"?>
<!-- Generator: Adobe Illustrator 27.0.0, SVG Export Plug-In . SVG Version: 6.00 Build 0)  -->
<svg version="1.1" id="图层_1" xmlns="http://www.w3.org/2000/svg" xmlns:xlink="http://www.w3.org/1999/xlink" x="0px" y="0px"
	 viewBox="0 0 205 174" style="enable-background:new 0 0 205 174;" xml:space="preserve">
<style type="text/css">
	.st0{fill:#31BBDE;}
</style>
<g id="_x23_31bbdeff">
	<path class="st0" d="M37.7,30c1.5-0.4,3-0.5,4.6-0.5c43,0.1,86,0,128.9,0c6.2,0,12.4,4,14.2,10c2.3,5.9,0.1,13.2-5.1,16.9
		c-21.1,15.9-42.3,31.8-63.4,47.7c-3.2,2.3-6.4,5.5-10.6,5.4c-2.7,0.1-5.1-1.2-7.2-2.8C76.8,89.9,54.5,73.2,32.3,56.4
		c-4-2.9-6.3-8-5.8-13C26.6,37.1,31.5,31.4,37.7,30z"/>
	<path class="st0" d="M26.4,64.6c21.1,15.6,42,31.4,63,47c3.7,2.7,7.2,6,11.8,7.2c5.8,1.8,12.3,0.3,17.1-3.4
		c22.7-16.9,45.3-33.9,68-50.8c0.6,17.3,0.1,34.6,0.2,51.9c-0.2,5.8,0.5,11.7-0.6,17.4c-1.9,8.9-10.4,15.7-19.5,15.6
		c-40,0-80,0-120,0c-7.2,0-14.1-4.1-17.5-10.4c-2.5-4.4-2.7-9.6-2.6-14.6C26.3,104.5,25.9,84.5,26.4,64.6z"/>
</g>
</svg>
