<?xml version="1.0" encoding="utf-8"?>
<!-- Generator: Adobe Illustrator 27.0.0, SVG Export Plug-In . SVG Version: 6.00 Build 0)  -->
<svg version="1.1" id="图层_1" xmlns="http://www.w3.org/2000/svg" xmlns:xlink="http://www.w3.org/1999/xlink" x="0px" y="0px"
	 viewBox="0 0 183 234" style="enable-background:new 0 0 183 234;" xml:space="preserve">
<style type="text/css">
	.st0{fill:#31BBDE;}
</style>
<g id="_x23_31bbdeff">
	<path class="st0" d="M87.3,7.6c17-2.5,35,2,48.7,12.5c17.4,13.1,27.3,35.6,24.7,57.3c-1.5,9.6-5.1,18.8-9.4,27.6
		c-11.8,23.2-27,44.4-42.7,65.1c-3.1,3.9-6.4,9.2-12.1,9.1c-5.8,0.2-9.1-5.1-12.2-9.1c-15.7-20.7-30.9-41.9-42.7-65.1
		c-4.9-10.1-9.1-21-9.9-32.3c-0.2-16.3,5.6-32.8,16.8-44.8C58.5,16.8,72.5,9.5,87.3,7.6 M91.6,50.7c-7.3,1.6-13.1,7.4-15.5,14.4
		c-3.8,10.5,2.7,23.2,13.2,26.8c7.1,2.8,15.6,1,21.3-4c6.2-5.5,9.2-14.7,6.4-22.7C113.7,54.8,102.2,47.8,91.6,50.7z"/>
</g>
</svg>
