<?xml version="1.0" encoding="UTF-8"?>
<svg id="_图层_1" data-name="图层 1" xmlns="http://www.w3.org/2000/svg" viewBox="0 0 430.55 512">
  <defs>
    <style>
      .cls-1 {
        fill: #31bbde;
      }
    </style>
  </defs>
  <path class="cls-1" d="M425.03,420.45c-11.53,1.39-44.86-52.74-44.86-52.74,0,31.35-16.14,72.25-51.05,101.79,16.84,5.19,54.84,19.17,45.8,34.42-7.32,12.34-125.51,7.88-159.63,4.04-34.12,3.84-152.32,8.31-159.63-4.04-9.04-15.25,28.92-29.21,45.78-34.42-34.92-29.54-51.06-70.45-51.06-101.79,0,0-33.33,54.13-44.86,52.74-5.37-.65-12.42-29.64,9.35-99.7,10.26-33.02,22-60.48,40.14-105.78C51.96,98.06,100.26,0,215.28,0c113.74,0,163.16,96.13,160.26,214.96,18.12,45.22,29.91,72.85,40.14,105.78,21.77,70.06,14.72,99.05,9.35,99.7h0Z"/>
</svg>